<svg width="182" height="48" viewBox="0 0 182 48" fill="none" xmlns="http://www.w3.org/2000/svg">
<g clip-path="url(#clip0_3246_567)">
<path fill-rule="evenodd" clip-rule="evenodd" d="M38.313 0.22603C36.8587 0.625368 35.534 1.39763 34.47 2.46636C33.406 3.53508 32.6396 4.8632 32.2466 6.31919C31.8537 7.77519 31.8479 9.30857 32.2298 10.7675C32.6117 12.2264 33.3681 13.5603 34.424 14.637C35.1964 15.4414 36.1223 16.0826 37.1468 16.5229C38.1714 16.9631 39.2739 17.1934 40.389 17.2C41.542 17.2 41.489 17.14 41.697 18.635L41.797 19.353L40.72 19.905C39.0839 20.8492 37.7283 22.2114 36.792 23.852C36.0159 25.273 35.596 26.8611 35.5683 28.48C35.5406 30.0989 35.9059 31.7003 36.633 33.147C37.0971 34.0821 37.73 34.9232 38.5 35.628C39.3926 36.596 40.4801 37.3638 41.691 37.8809C42.9019 38.398 44.2086 38.6526 45.525 38.628C47.0816 38.6905 48.6267 38.3356 50 37.6C51.1928 37.0109 52.2558 36.1892 53.1264 35.1833C53.997 34.1774 54.6577 33.0075 55.0696 31.7425C55.4815 30.4775 55.6363 29.143 55.525 27.8173C55.4136 26.4916 55.0382 25.2015 54.421 24.023C54.0843 23.3912 53.6868 22.7936 53.234 22.239L52.611 21.532L54.066 19.648C54.866 18.612 55.566 17.712 55.629 17.648C55.9301 17.6091 56.2361 17.6505 56.516 17.768C57.835 18.1024 59.2201 18.0716 60.523 17.679C61.4086 17.3687 62.2158 16.869 62.8884 16.2147C63.5611 15.5604 64.0829 14.7672 64.4176 13.8906C64.7522 13.0139 64.8917 12.0748 64.8262 11.1387C64.7607 10.2026 64.4918 9.29209 64.0383 8.47057C63.5848 7.64905 62.9576 6.93632 62.2004 6.38206C61.4432 5.82781 60.5743 5.44536 59.6541 5.26137C58.734 5.07739 57.7848 5.09631 56.8727 5.3168C55.9606 5.53729 55.1075 5.95405 54.373 6.53803C53.5546 7.24654 52.8715 8.09766 52.357 9.05003C51.8361 8.98857 51.3209 8.88625 50.816 8.74403L49.316 8.38103L49.06 7.09203C48.7686 5.47395 48.0256 3.97126 46.9167 2.75742C45.8078 1.54358 44.3782 0.668099 42.793 0.23203C41.3157 -0.0753093 39.7911 -0.0773511 38.313 0.22603ZM42.97 3.79303C44.0733 4.32696 44.9582 5.22565 45.475 6.33703C45.8002 7.04097 45.9274 7.82022 45.843 8.59103C45.9665 9.4707 45.7734 10.3656 45.298 11.116C44.8626 11.9864 44.1867 12.7137 43.3504 13.2116C42.5142 13.7095 41.5527 13.9571 40.58 13.925C39.764 14.0019 38.9443 13.8214 38.236 13.409C37.3188 12.9862 36.5446 12.3054 36.0079 11.4498C35.4713 10.5942 35.1954 9.60083 35.214 8.59103C35.2053 7.67418 35.4332 6.77057 35.8757 5.96753C36.3183 5.16449 36.9604 4.48916 37.7402 4.00679C38.5199 3.52442 39.4109 3.25132 40.327 3.21387C41.2432 3.17643 42.1535 3.37591 42.97 3.79303ZM59.878 8.33303C60.3044 8.50398 60.6895 8.7638 61.0076 9.09521C61.3257 9.42662 61.5696 9.822 61.723 10.255C61.934 10.778 62.0191 11.3432 61.9716 11.9051C61.9241 12.467 61.7453 13.0099 61.4495 13.49C61.1537 13.9701 60.7493 14.374 60.2688 14.6692C59.7884 14.9644 59.2453 15.1426 58.6833 15.1894C58.1213 15.2362 57.5562 15.1504 57.0335 14.9388C56.5108 14.7272 56.0452 14.3957 55.674 13.9712C55.3029 13.5466 55.0367 13.0408 54.8968 12.4945C54.757 11.9482 54.7475 11.3767 54.869 10.826C54.9775 10.2971 55.2069 9.80037 55.5393 9.37482C55.8717 8.94927 56.298 8.6064 56.785 8.37303C57.2571 8.11136 57.7867 7.97076 58.3265 7.96378C58.8662 7.9568 59.3993 8.08366 59.878 8.33303ZM51.387 11.793C51.905 11.931 51.987 12.015 51.987 12.419C52.1324 13.4168 52.4905 14.3717 53.037 15.219L53.437 15.806L52.053 17.622C51.292 18.622 50.58 19.511 50.472 19.601C50.334 19.716 50.044 19.664 49.498 19.428C48.2752 18.938 46.974 18.6728 45.657 18.645H44.666L44.514 18.045C44.114 16.466 44.078 16.561 45.319 15.773C46.678 14.8956 47.7562 13.646 48.425 12.173L48.853 11.192L49.823 11.417C50.352 11.532 51.058 11.705 51.387 11.793ZM100.47 21.044C99.3659 21.2927 98.3285 21.7766 97.4285 22.4628C96.5285 23.149 95.7872 24.0212 95.255 25.02C94.7048 26.0583 94.3996 27.2088 94.3627 28.3833C94.3258 29.5577 94.5581 30.7251 95.042 31.7959C95.5259 32.8667 96.2484 33.8126 97.1542 34.561C98.0601 35.3095 99.1252 35.8407 100.268 36.114C101.576 36.4297 102.942 36.4129 104.242 36.0651C105.542 35.7173 106.733 35.0497 107.709 34.123L108.18 33.623L107.164 32.6L106.148 31.574L105.577 32.023C105.129 32.4425 104.599 32.766 104.021 32.9735C103.443 33.1811 102.829 33.2684 102.216 33.23C101.487 33.334 100.744 33.1797 100.116 32.794C99.3934 32.3657 98.8005 31.7495 98.4003 31.011C98 30.2724 97.8074 29.4393 97.843 28.6C97.7918 27.7306 97.9967 26.8652 98.4324 26.111C98.8681 25.3569 99.5155 24.7471 100.294 24.3572C101.073 23.9673 101.949 23.8144 102.814 23.9175C103.679 24.0205 104.495 24.375 105.16 24.937C105.415 25.1554 105.699 25.3378 106.004 25.479C106.408 25.122 106.779 24.7287 107.111 24.304L108.1 23.141L107.452 22.621C106.468 21.8748 105.336 21.3479 104.132 21.0759C102.928 20.8039 101.679 20.793 100.47 21.044ZM0 28.594V36.019H3.18L3.224 33.826L3.268 31.633L5.5 31.548C7.569 31.469 7.81 31.426 8.783 30.97C9.91156 30.4947 10.8335 29.6324 11.383 28.538C11.8775 27.0983 11.8634 25.5326 11.343 24.102C10.7947 23.018 9.90302 22.1459 8.807 21.622C8.107 21.298 7.769 21.27 4.028 21.222L0 21.169V28.594ZM18.5 28.594V36.018H21.849V31.235H24.377L25.989 33.627L27.6 36.019H31.43L30.73 35.019C27.865 30.93 27.666 30.594 28.119 30.594C28.9252 30.246 29.6222 29.6862 30.136 28.974C30.7405 28.1231 31.0294 27.088 30.953 26.047C31.0274 25.1654 30.825 24.2825 30.374 23.5213C29.923 22.76 29.246 22.1584 28.437 21.8L27.356 21.267L22.927 21.218L18.5 21.17V28.594ZM65.382 26.507C65.382 31.78 65.382 31.83 65.018 32.367C64.246 33.517 62.788 33.536 61.348 32.414L60.607 31.837L59.765 32.753C58.525 34.102 58.531 34.077 59.298 34.753C60.1735 35.4903 61.2263 35.9863 62.3522 36.192C63.4782 36.3977 64.6383 36.306 65.718 35.926C66.8093 35.5252 67.7003 34.7128 68.2 33.663L68.648 32.75L68.695 26.97L68.742 21.19H65.379L65.382 26.507ZM76.382 28.607V36.022H87.863V33.152H79.731V29.959H86.747V27.089H79.731V24.059H87.7V21.189H76.382V28.607ZM114.049 22.667L114.095 24.142L116.367 24.186L118.639 24.23V36.019H121.828V24.227L124.1 24.183L126.372 24.139L126.418 22.664L126.464 21.189H114L114.049 22.667ZM47.188 22.967C48.0245 23.2072 48.7987 23.6265 49.457 24.1959C50.1152 24.7652 50.6417 25.4709 51 26.264C51.3663 27.0146 51.512 27.8539 51.42 28.684C51.5025 29.518 51.3541 30.3587 50.991 31.114C50.3435 32.3881 49.308 33.4235 48.034 34.071C47.2786 34.4341 46.438 34.5825 45.604 34.5C44.7712 34.5924 43.9294 34.4457 43.177 34.077C42.5583 33.7606 41.9835 33.365 41.467 32.9C40.7821 32.2407 40.2664 31.4258 39.9638 30.5246C39.6612 29.6234 39.5805 28.6624 39.7286 27.7233C39.8767 26.7843 40.2493 25.8948 40.8146 25.1305C41.38 24.3661 42.1214 23.7495 42.976 23.333C44.282 22.679 45.7878 22.5464 47.188 22.962V22.967ZM6.866 24.218C7.30064 24.3301 7.68662 24.5814 7.96491 24.9335C8.2432 25.2857 8.39848 25.7193 8.407 26.168C8.49015 26.6344 8.39828 27.1151 8.149 27.518C7.568 28.443 7.149 28.597 5.07 28.66L3.189 28.717V24.059H4.744C5.45472 24.0466 6.16507 24.0999 6.866 24.218ZM26.181 24.224C26.4726 24.3062 26.7424 24.4517 26.9712 24.6502C27.2 24.8487 27.3821 25.0952 27.5046 25.3723C27.6271 25.6493 27.6868 25.95 27.6797 26.2528C27.6725 26.5556 27.5985 26.8531 27.463 27.124C26.993 28.187 26.488 28.365 23.934 28.365H21.846V24.059H23.72C24.5436 24.0428 25.367 24.098 26.181 24.224Z" fill="black"/>
<path fill-rule="evenodd" clip-rule="evenodd" d="M38.3127 0.225936C36.8584 0.625273 35.5337 1.39754 34.4697 2.46626C33.4056 3.53499 32.6392 4.8631 32.2463 6.3191C31.8534 7.7751 31.8476 9.30847 32.2295 10.7674C32.6114 12.2263 33.3677 13.5602 34.4236 14.6369C35.1959 15.4416 36.1217 16.0833 37.1462 16.5239C38.1708 16.9644 39.2734 17.195 40.3886 17.2019C41.5416 17.2019 41.4886 17.1419 41.6966 18.6369L41.7966 19.3549L40.7197 19.9069C39.0836 20.8512 37.728 22.2133 36.7916 23.8539C36.0155 25.2749 35.5956 26.863 35.5679 28.4819C35.5402 30.1008 35.9056 31.7022 36.6326 33.1489C37.0969 34.0832 37.7299 34.9237 38.4997 35.6279C39.3923 36.5958 40.4798 37.3636 41.6907 37.8807C42.9015 38.3978 44.2082 38.6525 45.5246 38.6279C47.0817 38.6903 48.6271 38.335 50.0006 37.5989C51.1935 37.0098 52.2564 36.1881 53.127 35.1822C53.9977 34.1763 54.6584 33.0064 55.0703 31.7414C55.4822 30.4764 55.637 29.1419 55.5256 27.8162C55.4142 26.4905 55.0389 25.2004 54.4216 24.0219C54.085 23.3901 53.6874 22.7926 53.2347 22.2379L52.6117 21.5309L54.0667 19.6469C54.8667 18.6109 55.5667 17.7109 55.6297 17.6469C55.9307 17.608 56.2367 17.6494 56.5166 17.7669C57.8357 18.1013 59.2208 18.0705 60.5237 17.6779C61.4077 17.3662 62.2133 16.8656 62.8843 16.211C63.5553 15.5563 64.0755 14.7633 64.409 13.8872C64.7424 13.011 64.8809 12.0728 64.8148 11.1377C64.7488 10.2026 64.4799 9.29307 64.0267 8.47246C63.5735 7.65186 62.9469 6.93984 62.1906 6.38596C61.4343 5.83209 60.5664 5.44964 59.6473 5.26523C58.7281 5.08082 57.7799 5.09889 56.8685 5.31816C55.957 5.53744 55.1043 5.95266 54.3696 6.53494C53.5512 7.24343 52.8682 8.09455 52.3537 9.04694C51.8328 8.98548 51.3175 8.88316 50.8127 8.74094L49.3127 8.37794L49.0587 7.09094C48.7673 5.47286 48.0243 3.97016 46.9154 2.75633C45.8065 1.54249 44.3769 0.667004 42.7916 0.230936C41.3146 -0.0759363 39.7904 -0.0776378 38.3127 0.225936ZM42.9697 3.79294C44.0711 4.32773 44.9542 5.22633 45.4697 6.33694C45.7949 7.04086 45.9221 7.82012 45.8376 8.59094C45.9612 9.4706 45.768 10.3655 45.2926 11.1159C44.8573 11.9862 44.1816 12.7134 43.3455 13.2112C42.5095 13.7091 41.5482 13.9568 40.5757 13.9249C39.7596 14.0018 38.94 13.8214 38.2316 13.4089C37.3145 12.9861 36.5403 12.3053 36.0036 11.4497C35.4669 10.5941 35.1911 9.60074 35.2096 8.59094C35.2006 7.67353 35.4284 6.76931 35.8712 5.96574C36.3139 5.16218 36.9565 4.48648 37.7368 4.00399C38.5172 3.52151 39.4088 3.24858 40.3255 3.21161C41.2423 3.17463 42.153 3.37487 42.9697 3.79294ZM59.8776 8.33294C60.304 8.50388 60.6891 8.76371 61.0073 9.09512C61.3254 9.42653 61.5693 9.82191 61.7226 10.2549C61.9336 10.7779 62.0188 11.3431 61.9713 11.905C61.9238 12.4669 61.7449 13.0098 61.4492 13.4899C61.1534 13.97 60.749 14.374 60.2685 14.6691C59.788 14.9643 59.2449 15.1425 58.6829 15.1893C58.121 15.2361 57.5559 15.1503 57.0332 14.9387C56.5105 14.7271 56.0448 14.3956 55.6737 13.9711C55.3025 13.5465 55.0363 13.0407 54.8965 12.4944C54.7567 11.9481 54.7471 11.3766 54.8687 10.8259C54.9772 10.297 55.2066 9.80028 55.539 9.37473C55.8713 8.94918 56.2977 8.6063 56.7847 8.37294C57.2568 8.11127 57.7864 7.97066 58.3261 7.96368C58.8659 7.9567 59.3989 8.08357 59.8776 8.33294ZM51.3866 11.7929C51.9046 11.9309 51.9867 12.0149 51.9867 12.4189C52.1321 13.4167 52.4901 14.3716 53.0367 15.2189L53.4366 15.8059L52.0526 17.6219C51.2916 18.6219 50.5797 19.5109 50.4717 19.6009C50.3337 19.7159 50.0437 19.6639 49.4977 19.4279C48.2749 18.9379 46.9737 18.6727 45.6566 18.6449H44.6657L44.5136 18.0449C44.1136 16.4659 44.0777 16.5609 45.3187 15.7729C46.6776 14.8954 47.7558 13.6458 48.4247 12.1729L48.8526 11.1919L49.8226 11.4169C50.3516 11.5319 51.0577 11.7049 51.3857 11.7929H51.3866ZM47.1866 22.9619C48.0238 23.2022 48.7986 23.6219 49.4572 24.1917C50.1158 24.7616 50.6425 25.468 51.0006 26.2619C51.367 27.0126 51.5127 27.8518 51.4207 28.6819C51.5031 29.5159 51.3547 30.3566 50.9917 31.1119C50.3441 32.386 49.3087 33.4214 48.0347 34.0689C47.2793 34.432 46.4387 34.5804 45.6046 34.4979C44.7719 34.5904 43.93 34.4436 43.1776 34.0749C42.5598 33.759 41.9856 33.364 41.4697 32.8999C40.7848 32.2406 40.2691 31.4257 39.9665 30.5245C39.6638 29.6233 39.5831 28.6623 39.7312 27.7232C39.8794 26.7842 40.2519 25.8947 40.8173 25.1304C41.3826 24.3661 42.1241 23.7495 42.9787 23.3329C44.2838 22.6797 45.7884 22.5471 47.1877 22.9619H47.1866Z" fill="#2F64FF"/>
<path fill-rule="evenodd" clip-rule="evenodd" d="M136.383 20.9149C134.311 21.4969 133.31 22.7009 133.31 24.6149C133.31 26.9479 134.793 28.165 138.831 29.147C141.368 29.764 142.494 30.2889 142.91 31.0469C143.51 32.1469 143.052 33.2349 141.682 33.9729C141.13 34.2729 140.782 34.3159 139.131 34.3159C137.359 34.3159 137.151 34.2829 136.31 33.8699C135.691 33.5433 135.112 33.1471 134.584 32.6889L133.766 31.953L133.288 32.4309L132.81 32.9089L133.774 33.8639C134.674 34.8058 135.805 35.496 137.054 35.8663C138.303 36.2366 139.627 36.274 140.896 35.9749C143.655 35.4669 145.147 33.7749 144.905 31.4379C144.694 29.3929 143.364 28.4919 138.905 27.3759C136.446 26.7599 135.249 25.8929 135.105 24.6259C135.046 24.3987 135.054 24.1597 135.126 23.9366C135.199 23.7135 135.333 23.5156 135.514 23.3659C136.06 22.9036 136.709 22.5771 137.406 22.4132C138.103 22.2493 138.829 22.2526 139.525 22.4229C140.11 22.4716 140.674 22.6615 141.169 22.9765C141.665 23.2914 142.076 23.7219 142.369 24.231L142.758 24.9869H143.613C144.623 24.9869 144.667 24.8619 144.093 23.6279C143.476 22.493 142.5 21.5955 141.318 21.0769C139.702 20.6814 138.021 20.6263 136.383 20.9149ZM152.764 28.3309V35.8309H163.288V34.2299H154.518V28.9679H162.172V27.3729H154.518V22.5939L158.784 22.5509L163.05 22.5089V20.9139L157.907 20.8719L152.764 20.8299V28.3309ZM169.455 20.9449C169.363 21.2277 169.327 21.5255 169.348 21.8219V22.5929H174.77V35.8299H176.524V22.5929H181.949V20.8389H175.749C172.349 20.8389 169.512 20.8869 169.455 20.9449Z" fill="#2F64FF"/>
</g>
<defs>
<clipPath id="clip0_3246_567">
<rect width="181.946" height="48" fill="white"/>
</clipPath>
</defs>
</svg>
